<svg xmlns="http://www.w3.org/2000/svg" version="1.1" xmlns:xlink="http://www.w3.org/1999/xlink" xmlns:svgjs="http://svgjs.dev/svgjs" width="100%" height="100%" viewBox="0 0 1000 600"><rect width="1000" height="600" x="0" y="0" fill="#ffffff"/><g><circle r="166.66666666666666" cx="303.3441721598307" cy="325.5664367541739" fill="#372772" transform="matrix(0.9145613756051024,0,0,0.9145613756051024,0,2.249505055231623)"/><path d="M254.45306313155237 400.566458014391Q253.88043995465492 400.566458014391 253.58049448104197 399.96656706716504Q253.28054900742902 399.3939438902676 253.28054900742902 398.7940529430418L253.28054900742902 398.7940529430418Q253.28054900742902 396.25815030249584 255.4347028633766 392.82241124111107Q257.5888567193242 389.3866721797264 260.8337213884097 386.93257285016585Q264.0785860574953 384.4784735206054 267.023505252968 384.4784735206054L267.023505252968 384.4784735206054L271.54995512749065 384.4784735206054Q274.27673216033565 380.93366337790684 276.1582083129988 376.3254101923987Q278.0124166953334 371.71715700689066 279.4030729820844 363.0732738127719L279.4030729820844 363.0732738127719L291.373624156274 293.18597846095395Q292.5461382803974 285.1147184437327 296.281822815395 278.05236592866413Q300.01750735039275 270.9900134135955 307.4616086500596 263.73678650622776L307.4616086500596 263.73678650622776Q320.6319417187011 250.56645343758626 336.52905182018753 250.56645343758626L336.52905182018753 250.56645343758626Q340.45561074748446 250.56645343758626 344.46397298576665 251.2481476957975Q348.49960299437726 251.95710972433722 351.0627734052515 253.32049824075975L351.0627734052515 253.32049824075975Q353.40780165349827 254.68388675718225 353.40780165349827 255.66552648900645L353.40780165349827 255.66552648900645Q353.40780165349827 257.4379315603557 348.8813517789755 259.59208541630323Q344.38216967478127 261.77350704257935 341.6281248716077 261.77350704257935L341.6281248716077 261.77350704257935Q340.8373595320827 261.77350704257935 337.31981715971267 260.79186731075515Q333.7750070170141 259.8102275789309 330.0393224820165 259.8102275789309L330.0393224820165 259.8102275789309Q323.16784435924694 259.8102275789309 317.08713157600255 264.50028407542436L317.08713157600255 264.50028407542436Q313.16057264870574 267.66334543352457 310.7064733191452 273.74405821676896Q308.2523739895847 279.82477100001336 306.4799689182354 289.25941953365714L306.4799689182354 289.25941953365714L291.9462473331714 371.3081404519639Q291.1827497639748 375.42557377155987 289.4103446926256 379.2703293878714Q287.63793962127636 383.0878172338544 285.2929113730296 385.241971089802L285.2929113730296 385.241971089802L285.2929113730296 385.4601132524296Q289.0013281376988 386.2236108216262 298.81772545594094 386.93257285016585Q308.63412277418297 387.6142671083771 314.14221238052994 387.6142671083771L314.14221238052994 387.6142671083771Q331.21183660613974 387.6142671083771 345.1729350143063 379.3521326988567L345.1729350143063 379.3521326988567Q346.9180723153271 378.1796185747333 347.7088376548521 378.1796185747333L347.7088376548521 378.1796185747333Q349.0994939416031 378.1796185747333 349.0994939416031 380.3337724306809L349.0994939416031 380.3337724306809Q349.0994939416031 384.0694569656786 343.70047541656993 388.89585231381426Q338.3014568915369 393.6949798916215 329.16675383150596 397.13071895300624Q320.03205077147516 400.566458014391 309.8339046686348 400.566458014391L309.8339046686348 400.566458014391Q304.92570600951376 400.566458014391 291.56449854857317 398.98492733534084L291.56449854857317 398.98492733534084Q289.60121908492476 398.7940529430418 282.72974096215523 398.00328760351664Q275.8582628393858 397.23979003432004 270.35017323303884 397.23979003432004L270.35017323303884 397.23979003432004Q264.67847700472123 397.23979003432004 261.8153611202339 397.92148429253126Q258.9795130060751 398.6031785507426 257.09803685341205 399.5848182825668Q255.24382847107742 400.566458014391 254.45306313155237 400.566458014391L254.45306313155237 400.566458014391Z " fill="white" transform="matrix(0.9145613756051024,0,0,0.9145613756051024,0,2.249505055231623)"/><path d="M557.6060040569608 354.6534396611568Q555.3603477097228 354.6534396611568 554.3604569273758 352.47334992259727Q553.3441744928592 350.2932601840376 553.3441744928592 346.98214644577416L553.3441744928592 346.98214644577416Q553.3441744928592 344.7364900985361 553.8195324057783 341.67125114281686L553.8195324057783 341.67125114281686L560.7859845778673 295.1681339376016Q563.2611240554801 279.12070646354243 566.8017209241183 270.3839558571343Q570.3423177927565 261.6472052507263 575.3089884001516 257.76238368652605L575.3089884001516 257.76238368652605Q578.1283525733265 255.51672733928794 581.2099831812153 254.45126994826256Q584.2752221369345 253.3858125572372 590.6515748309172 251.8613889054624L590.6515748309172 251.8613889054624Q593.6020722214489 251.27128942735604 594.4216548299299 250.9106730796244Q595.2412374384111 250.56644838406234 595.4871122209554 250.56644838406234L595.4871122209554 250.56644838406234Q596.3066948294364 250.56644838406234 596.3066948294364 251.50077255773076L596.3066948294364 251.50077255773076Q596.3066948294364 251.97613047064976 595.7821619600086 252.92684629648778Q595.2412374384111 253.8611704701562 594.0610384821983 254.92662786118157L594.0610384821983 254.92662786118157Q592.7660979607982 256.10682681739434 591.5858990045855 256.5166181216348Q590.4057000483728 256.92640942587536 588.750143179241 257.0575426432323L588.750143179241 257.0575426432323Q581.9148242245091 257.76238368652605 578.8495852687898 261.30298055516425L578.8495852687898 261.30298055516425Q573.0633320529136 267.90881637952157 570.3423177927565 285.72654228789975L570.3423177927565 285.72654228789975L561.7367004037054 341.31063479508526Q561.6055671863484 342.14660905573595 561.6055671863484 343.3268080119487L561.6055671863484 343.3268080119487Q561.6055671863484 345.9166890547488 563.1463824902927 345.9166890547488L563.1463824902927 345.9166890547488Q566.6869793589309 345.9166890547488 571.4077751837818 335.4096400140216L571.4077751837818 335.4096400140216Q571.8831330967008 334.1146994926216 572.702715705182 334.1146994926216L572.702715705182 334.1146994926216Q573.5386899658325 334.1146994926216 573.5386899658325 335.7702563617533L573.5386899658325 335.7702563617533Q573.5386899658325 339.6714695781231 570.7521090969971 344.1463906204297Q567.981919880331 348.6377033149059 564.2118398813182 351.6373756619466Q560.4253682301356 354.6534396611568 557.6060040569608 354.6534396611568L557.6060040569608 354.6534396611568ZM593.1267143085299 354.6534396611568Q587.8158190055727 354.6534396611568 584.685013441175 350.5883099230908Q581.5542078767774 346.5067885328552 581.5542078767774 339.3108532303914L581.5542078767774 339.3108532303914Q581.5542078767774 330.5741026239834 585.7504708322004 320.60797810485366Q589.9303421354538 310.62546193355433 596.5525696119807 303.97045115268816Q603.1584054363381 297.2990487196523 609.8789828258828 297.2990487196523L609.8789828258828 297.2990487196523Q616.0258523894908 297.2990487196523 616.0258523894908 304.7244671524908L616.0258523894908 304.7244671524908Q616.0258523894908 310.7565951509114 612.4852555208525 316.52645671461795Q608.9446586522143 322.31270993049424 602.9780972624723 326.738456016292Q597.0115358727302 331.16420210208975 589.9303421354538 333.5246000145152L589.9303421354538 333.5246000145152Q589.9303421354538 339.90095270849775 591.995690308826 342.7367085338423Q594.0610384821983 345.57246435918677 598.0769932637555 345.57246435918677L598.0769932637555 345.57246435918677Q602.3224311756875 345.57246435918677 605.8630280443256 342.8514500990296Q609.4036249129638 340.13043583887253 611.8951560427462 335.4096400140216L611.8951560427462 335.4096400140216Q612.2393807383082 334.70479897072784 612.5999970860399 334.22944105780886Q612.9442217816019 333.77047479705953 613.5343212597082 333.77047479705953L613.5343212597082 333.77047479705953Q614.4850370855463 333.77047479705953 614.4850370855463 335.18015688364693L614.4850370855463 335.18015688364693Q614.4850370855463 338.3601374045534 611.3050565646398 343.08093322940437Q608.1086843915637 347.8017290542552 603.1584054363381 351.227584357706Q598.1917348289429 354.6534396611568 593.1267143085299 354.6534396611568L593.1267143085299 354.6534396611568ZM593.7168137866363 327.2793805378895Q596.7820527423554 327.2793805378895 600.2570830023152 325.0828991471603Q603.7485049144444 322.9028094086006 606.1089028268699 319.13272940958774Q608.4693007392954 315.3462577584052 608.4693007392954 310.62546193355433L608.4693007392954 310.62546193355433Q608.4693007392954 305.08508350022237 604.5680875229256 305.08508350022237L604.5680875229256 305.08508350022237Q601.388107002019 305.08508350022237 598.4867845679961 308.5109388036732Q595.6018537861427 311.93679410712406 593.6512471779578 317.00181462753704Q591.7006405697729 322.0832268001196 590.9957995264791 326.8040226249705L590.9957995264791 326.8040226249705Q591.7006405697729 327.2793805378895 593.7168137866363 327.2793805378895L593.7168137866363 327.2793805378895ZM628.4179414297244 354.6534396611568Q622.3858134313037 354.6534396611568 622.3858134313037 343.2120664467613L622.3858134313037 343.2120664467613Q622.3858134313037 332.2296594931151 627.1721758648331 321.5423022785221Q631.9585382983624 310.87133671609865 640.0887977744945 304.08519271787554Q648.2354489027963 297.2990487196523 657.6770405524982 297.2990487196523L657.6770405524982 297.2990487196523Q662.5125779425364 297.2990487196523 666.0531748111746 298.8234723714271L666.0531748111746 298.8234723714271Q664.5287511593998 304.8556003698477 663.9386516812934 307.6749645430225L663.9386516812934 307.6749645430225L661.4635122036807 320.42766993098786Q658.1523984654171 335.5407732313785 657.4475574221234 341.31063479508526L657.4475574221234 341.31063479508526Q657.3328158569361 342.14660905573595 657.3328158569361 343.3268080119487L657.3328158569361 343.3268080119487Q657.3328158569361 345.9166890547488 658.8572395087109 345.9166890547488L658.8572395087109 345.9166890547488Q660.7422795082173 345.9166890547488 662.3978363773491 343.5071161858145Q664.0533932464808 341.0811516647105 666.1843080285315 336.5898389702343L666.1843080285315 336.5898389702343Q666.2990495937189 336.47509740504694 666.5940993327721 335.88499792694057Q666.8891490718253 335.2948984488342 667.3645069847443 335.2948984488342L667.3645069847443 335.2948984488342Q668.069348028038 335.2948984488342 668.069348028038 336.72097218759126L668.069348028038 336.72097218759126L667.8234732454937 338.60601218709775Q667.0038906370127 342.490833751298 664.4631845507213 346.2773054024804Q661.92247846443 350.0473854014933 658.808064552202 352.3586083574099Q655.6772589878044 354.6534396611568 653.2021195101916 354.6534396611568L653.2021195101916 354.6534396611568Q649.071423163447 354.6534396611568 649.071423163447 347.93286227161224L649.071423163447 347.93286227161224Q649.071423163447 345.32658957664245 649.6615226415533 342.62196696865493L649.6615226415533 342.62196696865493L651.6613042062472 332.3444010583025L651.5465626410598 332.3444010583025Q645.8750509903708 342.2613506209232 639.4495233398794 348.4573951410401Q633.0076040372182 354.6534396611568 628.4179414297244 354.6534396611568L628.4179414297244 354.6534396611568ZM633.9583198630563 344.9823648810804Q637.2694336013197 344.9823648810804 641.5640464697605 339.83538609981935Q645.8750509903708 334.70479897072784 649.5959560328749 327.2793805378895Q653.3168610753789 319.8375704528815 654.7265431619663 313.9365756718178L654.7265431619663 313.9365756718178L656.6115831614728 306.3800240216225Q653.0709862928346 304.019626109197 649.1861647286344 304.019626109197L649.1861647286344 304.019626109197Q644.1047525560518 304.019626109197 639.9248812527984 309.87144593375183Q635.7286182973754 315.7068741061369 633.36822038495 324.0338334083045Q631.0078224725245 332.3444010583025 631.0078224725245 339.0813701000167L631.0078224725245 339.0813701000167Q631.0078224725245 342.03186749054856 631.6634885593093 343.5071161858145Q632.3027629939246 344.9823648810804 633.9583198630563 344.9823648810804L633.9583198630563 344.9823648810804ZM679.5107212424335 354.6534396611568Q679.0353633295146 354.6534396611568 678.7403135904614 354.473131487291Q678.4452638514082 354.29282331342523 678.4452638514082 354.06334018305046L678.4452638514082 354.06334018305046Q678.4452638514082 353.70272383531886 679.1664965468716 352.52252487910613Q679.8713375901652 351.3423259228934 680.2155622857273 349.22780279301224L680.2155622857273 349.22780279301224Q680.6909201986463 346.7526633153995 681.051536546378 344.6873151420272Q681.39576124194 342.62196696865493 681.7563775896716 340.85166853433583L681.7563775896716 340.85166853433583Q684.7068749802035 324.6731078429197 685.7067657625504 318.2475801924282Q686.7066565448973 311.8056608897671 686.5919149797099 308.85516349923523L686.5919149797099 308.85516349923523Q686.5919149797099 307.33073984746045 686.3624318493352 306.6258988041668Q686.116557066791 305.9046661087035 685.2969744583098 305.9046661087035L685.2969744583098 305.9046661087035Q684.2315170672845 305.9046661087035 682.5759601981528 307.6749645430225Q680.9367949811906 309.4452629773416 679.5107212424335 311.8056608897671L679.5107212424335 311.8056608897671Q678.9206217643272 312.8711182807925 678.4452638514082 313.64152593276464Q677.9862975906589 314.4119335847369 677.6912478516056 314.75615828029885Q677.3961981125525 315.11677462803056 677.0355817648208 315.11677462803056L677.0355817648208 315.11677462803056Q676.5602238519017 315.11677462803056 676.330740721527 314.75615828029885Q676.0848659389827 314.4119335847369 676.0848659389827 313.82183410663055L676.0848659389827 313.82183410663055Q676.0848659389827 311.57617775939235 678.625572025274 307.5602229778352Q681.1662781115652 303.54426819627804 684.641308371525 300.42985428404995Q688.1327302836543 297.2990487196523 690.8373528916418 297.2990487196523L690.8373528916418 297.2990487196523Q693.0830092388799 297.2990487196523 693.9681584560395 299.0693471539714Q694.853307673199 300.8396455882905 694.853307673199 304.6097255873034L694.853307673199 304.6097255873034Q694.853307673199 309.8058793250733 692.6076513259609 318.65737149666876L692.6076513259609 318.65737149666876L692.8535261085052 318.65737149666876Q704.0654161925261 297.2990487196523 713.6217494074152 297.2990487196523L713.6217494074152 297.2990487196523Q716.0968888850281 297.2990487196523 717.4573960151066 298.65955584973085Q718.8179031451851 300.00367132763984 718.8179031451851 302.49520245742224L718.8179031451851 302.49520245742224Q718.8179031451851 305.08508350022237 717.6868791454814 307.80609776037954Q716.5722467979471 310.51072036836706 714.9822565374938 312.2810188026861Q713.3922662770406 314.0513172370052 712.0809341034709 314.0513172370052L712.0809341034709 314.0513172370052Q711.2613514949898 314.0513172370052 711.4908346253645 312.98585984597986L711.4908346253645 312.98585984597986Q711.8514509730961 311.34669462901763 711.8514509730961 310.3959788031797L711.8514509730961 310.3959788031797Q711.8514509730961 307.5602229778352 708.786212017377 307.5602229778352L708.786212017377 307.5602229778352Q705.1308735835515 307.5602229778352 701.4591434975563 311.8056608897671Q697.8038050637308 316.06749045386863 695.0336158470649 322.19796836530696Q692.2634266303988 328.3284462767452 691.1979692393735 333.4098584493278L691.1979692393735 333.4098584493278Q689.788287152786 338.8354953174724 689.4276708050544 344.7364900985361L689.4276708050544 344.7364900985361Q689.1981876746797 346.98214644577416 687.3623226316821 349.2769777495211Q685.5264575886846 351.5882007054377 683.1660596762591 353.1126243572125Q680.8056617638337 354.6534396611568 679.5107212424335 354.6534396611568L679.5107212424335 354.6534396611568ZM724.8336394914362 354.6534396611568Q723.7681821004107 354.6534396611568 723.7681821004107 353.9485986178632L723.7681821004107 353.9485986178632Q723.7681821004107 353.4732407049441 724.3091066220082 351.8832504444909Q724.8336394914362 350.2932601840376 725.7843553172742 346.3920469676678L725.7843553172742 346.3920469676678Q728.1447532296996 336.5898389702343 731.4394753157935 313.70709254144316L731.4394753157935 313.70709254144316Q732.1443163590872 309.21577984696694 732.1443163590872 307.44548141264784L732.1443163590872 307.44548141264784Q732.1443163590872 305.9046661087035 731.4394753157935 305.9046661087035L731.4394753157935 305.9046661087035Q729.4396937510998 305.9046661087035 725.4237389695426 312.98585984597986L725.4237389695426 312.98585984597986Q724.8336394914362 314.0513172370052 724.3582815785171 314.82172488897737Q723.8829236655981 315.59213254094954 723.587873926545 315.9363572365116Q723.2928241874918 316.2969735842433 722.9485994919297 316.2969735842433L722.9485994919297 316.2969735842433Q721.9978836660916 316.2969735842433 721.9978836660916 315.11677462803056L721.9978836660916 315.11677462803056Q721.9978836660916 312.7563767156051 724.6041563610614 308.3961972384859Q727.1940374038617 304.019626109197 730.7346342724998 300.6593374144247Q734.275231141138 297.2990487196523 737.1109869664824 297.2990487196523L737.1109869664824 297.2990487196523Q738.9960269659888 297.2990487196523 739.8156095744699 298.95460558878403Q740.6515838351206 300.5937708057462 740.6515838351206 303.0853019355286L740.6515838351206 303.0853019355286Q740.6515838351206 306.97012349972886 738.7665438356141 318.29675514893705L738.7665438356141 318.29675514893705L738.8812854008015 318.29675514893705Q744.3069222689461 308.74042193404796 750.7980165281161 303.0197353268501Q757.2891107872861 297.2990487196523 762.009906612137 297.2990487196523L762.009906612137 297.2990487196523Q766.9601855673626 297.2990487196523 766.9601855673626 304.26550089174134L766.9601855673626 304.26550089174134Q766.9601855673626 306.85538193454147 765.9111198285069 312.98585984597986L765.9111198285069 312.98585984597986L763.1901055683497 327.14824732053256Q760.2396081778179 342.14660905573595 760.2396081778179 344.1463906204297L760.2396081778179 344.1463906204297Q760.2396081778179 344.9823648810804 760.6493994820584 345.62163931569563Q761.0591907862989 346.2773054024804 762.009906612137 346.2773054024804L762.009906612137 346.2773054024804Q765.1898871330435 346.2773054024804 769.3205834797881 336.5898389702343L769.3205834797881 336.5898389702343Q769.6811998275197 335.2948984488342 770.5007824360008 335.2948984488342L770.5007824360008 335.2948984488342Q771.2220151314641 335.2948984488342 771.2220151314641 336.72097218759126L771.2220151314641 336.72097218759126Q771.2220151314641 337.77003792644706 771.0908819141072 338.60601218709775L771.0908819141072 338.60601218709775Q770.271299305626 342.8514500990296 767.6814182628259 346.5723551415336Q765.0751455678561 350.2932601840376 761.8951650469496 352.47334992259727Q758.6987928738735 354.6534396611568 756.1089118310733 354.6534396611568L756.1089118310733 354.6534396611568Q753.6337723534606 354.6534396611568 752.748623136301 352.58809148778465Q751.8634739191415 350.52274331441237 751.8634739191415 348.0476038367995L751.8634739191415 348.0476038367995Q751.8634739191415 342.7367085338423 754.8139713096733 328.91854575485155L754.8139713096733 328.91854575485155Q757.6497271350178 315.47739097576226 757.8792102653924 310.2812372379923L757.8792102653924 310.2812372379923Q757.9939518305798 308.1503224559416 757.5841605263392 307.26517323878204Q757.1743692220988 306.3800240216225 755.6335539181543 306.3800240216225L755.6335539181543 306.3800240216225Q751.9782154843289 306.3800240216225 747.7819525289058 311.2155614116607Q743.6020812256523 316.06749045386863 740.2909674873889 323.0831175824665Q736.9962454012951 330.0987447110643 735.9307880102697 335.88499792694057L735.9307880102697 335.88499792694057L734.0457480107633 346.16256383729313Q733.3245153152999 349.22780279301224 730.2592763595808 351.93242540099976Q727.1940374038617 354.6534396611568 724.8336394914362 354.6534396611568L724.8336394914362 354.6534396611568ZM773.9266377394516 366.09481287555246Q772.9923135657832 366.09481287555246 772.9923135657832 365.27523026707144L772.9923135657832 365.27523026707144Q772.9923135657832 364.32451444123336 774.2216874785048 362.91483235464597Q775.467453043396 361.50515026805857 777.5819761732771 360.4396928770331Q779.7128909553279 359.37423548600776 782.1880304329408 359.37423548600776L782.1880304329408 359.37423548600776L822.5606697267177 359.37423548600776Q823.970351813305 359.37423548600776 825.5603420737583 359.19392731214197Q827.1503323342116 359.01361913827606 827.8715650296749 359.01361913827606L827.8715650296749 359.01361913827606Q828.8058892033433 359.01361913827606 828.8058892033433 359.73485183373947L828.8058892033433 359.73485183373947Q828.8058892033433 360.6691760074079 827.5765152906217 362.1444247026738Q826.3307497257305 363.6196733979396 824.1998349436798 364.68513078896507Q822.0853118137986 365.7505881799904 819.6101723361859 365.7505881799904L819.6101723361859 365.7505881799904L779.2375330424089 365.7505881799904Q777.8278509558214 365.7505881799904 776.2378606953681 365.9308963538562Q774.6314787827454 366.09481287555246 773.9266377394516 366.09481287555246L773.9266377394516 366.09481287555246ZM844.1484756341086 354.6534396611568Q841.9028192868706 354.6534396611568 840.9029285045237 352.47334992259727Q839.9030377221769 350.2932601840376 839.9030377221769 346.98214644577416L839.9030377221769 346.98214644577416Q839.9030377221769 344.7364900985361 840.3783956350959 341.67125114281686L840.3783956350959 341.67125114281686L847.3448478071849 295.1681339376016Q849.8199872847978 279.12070646354243 853.3605841534358 270.3839558571343Q856.901181022074 261.6472052507263 861.8514599772997 257.76238368652605L861.8514599772997 257.76238368652605Q864.6872158026441 255.51672733928794 867.7524547583633 254.45126994826256Q870.8176937140825 253.3858125572372 877.194046408065 251.8613889054624L877.194046408065 251.8613889054624Q880.1445437985968 251.27128942735604 880.9805180592475 250.9106730796244Q881.8001006677285 250.56644838406234 882.0295837981033 250.56644838406234L882.0295837981033 250.56644838406234Q882.865558058754 250.56644838406234 882.865558058754 251.50077255773076L882.865558058754 251.50077255773076Q882.865558058754 251.97613047064976 882.3246335371565 252.92684629648778Q881.8001006677285 253.8611704701562 880.6199017115158 254.92662786118157L880.6199017115158 254.92662786118157Q879.3249611901158 256.10682681739434 878.1447622339031 256.5166181216348Q876.9645632776904 256.92640942587536 875.3090064085587 257.0575426432323L875.3090064085587 257.0575426432323Q868.4572958016569 257.76238368652605 865.3920568459379 261.30298055516425L865.3920568459379 261.30298055516425Q859.6058036300616 267.90881637952157 856.901181022074 285.72654228789975L856.901181022074 285.72654228789975L848.2791719808532 341.31063479508526Q848.1644304156661 342.14660905573595 848.1644304156661 343.3268080119487L848.1644304156661 343.3268080119487Q848.1644304156661 345.9166890547488 849.7052457196104 345.9166890547488L849.7052457196104 345.9166890547488Q853.2458425882486 345.9166890547488 857.9666384130994 335.4096400140216L857.9666384130994 335.4096400140216Q858.4256046738489 334.1146994926216 859.2615789344994 334.1146994926216L859.2615789344994 334.1146994926216Q860.0811615429806 334.1146994926216 860.0811615429806 335.7702563617533L860.0811615429806 335.7702563617533Q860.0811615429806 339.6714695781231 857.3109723263145 344.1463906204297Q854.5407831096486 348.6377033149059 850.7543114584661 351.6373756619466Q846.9842314594532 354.6534396611568 844.1484756341086 354.6534396611568L844.1484756341086 354.6534396611568ZM878.1447622339031 354.6534396611568Q873.1780916265078 354.6534396611568 870.6537771923862 350.81779305346555Q868.1130711060949 346.98214644577416 868.1130711060949 340.13043583887253L868.1130711060949 340.13043583887253Q868.1130711060949 330.5741026239834 872.7191253657585 320.54241149617513Q877.3087879732524 310.51072036836706 884.0949319714756 303.90488454400963Q890.8810759696988 297.2990487196523 897.0279455333067 297.2990487196523L897.0279455333067 297.2990487196523Q901.6339997929703 297.2990487196523 904.1091392705831 301.36417845771837Q906.5842787481959 305.4456998479541 906.5842787481959 312.05153567231145L906.5842787481959 312.05153567231145Q906.5842787481959 320.90302784390684 902.2732742275855 330.934718971715Q897.9622697069751 340.9664100995232 891.3564338826178 347.8017290542552Q884.7505980582604 354.6534396611568 878.1447622339031 354.6534396611568L878.1447622339031 354.6534396611568ZM883.9310154497795 346.8674048805868Q887.8158370139796 346.8674048805868 891.0122091870556 342.9170167077081Q894.1921897079623 338.9502368826598 896.0772297074686 332.4099676669809Q897.9622697069751 325.85330679913244 897.9622697069751 318.5426299314814L897.9622697069751 318.5426299314814Q897.9622697069751 305.08508350022237 891.0122091870556 305.08508350022237L891.0122091870556 305.08508350022237Q886.6356380577669 305.08508350022237 883.3900909281818 309.8058793250733Q880.1445437985968 314.5266751499242 878.4398119729564 321.3128191481474Q876.718688495146 328.0989631463705 876.718688495146 333.9999579274342L876.718688495146 333.9999579274342Q876.718688495146 339.6714695781231 878.4398119729564 343.26124140327016Q880.1445437985968 346.8674048805868 883.9310154497795 346.8674048805868L883.9310154497795 346.8674048805868ZM910.4854919645657 400.56645738826586Q905.7646961397148 400.56645738826586 902.5191490101298 398.0257513019746Q899.2736018805448 395.4850452156832 897.6672199679219 391.6493986079918Q896.0772297074686 387.81375200030055 896.0772297074686 383.79779721874337L896.0772297074686 383.79779721874337Q896.0772297074686 379.9129756545431 897.4377368375473 377.6017526986265Q898.7982439676258 375.30692139487957 900.5029757932664 374.3562055690415Q902.2240992710766 373.4218813953731 903.158423444745 373.4218813953731L903.158423444745 373.4218813953731Q903.8632644880387 373.4218813953731 903.8632644880387 374.3562055690415L903.8632644880387 374.3562055690415Q903.8632644880387 383.683055653556 906.6990203133831 388.35467652189806Q909.5347761387277 393.0099057380705 916.140611963085 393.0099057380705L916.140611963085 393.0099057380705Q926.0575615257059 393.0099057380705 931.0078404809315 382.97821461026234L931.0078404809315 382.97821461026234Q933.0240136977949 378.84751826351777 934.4992623930608 371.9466327001073Q935.9745110883266 365.04574713669666 938.5643921311267 348.9819280104679L938.5643921311267 348.9819280104679Q939.5151079569648 342.62196696865493 942.2197305649523 333.77047479705953L942.2197305649523 333.77047479705953L942.1049889997649 333.5246000145152Q935.8597695231393 343.67103270751073 929.8932081333971 349.1622361843337Q923.926646743655 354.6534396611568 919.4517257013484 354.6534396611568L919.4517257013484 354.6534396611568Q913.3048561377406 354.6534396611568 913.3048561377406 343.08093322940437L913.3048561377406 343.08093322940437Q913.3048561377406 332.3444010583025 918.0256519625914 321.673435495879Q922.7464477874424 310.98607828128604 930.8439239592352 304.1343676743844Q938.9250084788584 297.2990487196523 948.2518585633729 297.2990487196523L948.2518585633729 297.2990487196523Q952.9726543882238 297.2990487196523 956.7427343872367 299.1840887191588L956.7427343872367 299.1840887191588L955.087177518105 304.6097255873034Q951.6613222146541 317.24768941008136 950.0221569976919 325.67299862526664Q948.3666001285602 334.1146994926216 947.3011427375349 342.2613506209232L947.3011427375349 342.2613506209232Q946.5963016942411 347.34276279350587 946.7110432594285 346.8674048805868L946.7110432594285 346.8674048805868Q945.170227955484 359.01361913827606 943.9408540427625 365.34079687574985Q942.6950884778713 371.6515829610541 940.6953069131774 376.3068121772265Q938.6791336963141 380.97843304556847 934.9090536973013 385.6992288704194L934.9090536973013 385.6992288704194Q929.3686752639693 392.5345478251515 922.7464477874424 396.5505026067087Q916.140611963085 400.56645738826586 910.4854919645657 400.56645738826586L910.4854919645657 400.56645738826586ZM924.9921041346804 344.9823648810804Q928.6474425685059 344.9823648810804 933.2043218716607 339.3108532303914Q937.7448095226457 333.6393415797025 941.3345813477928 325.6238236687578Q944.9407448251094 317.5919141056434 946.0062022161347 311.57617775939235L946.0062022161347 311.57617775939235L946.7110432594285 306.97012349972886Q945.5308443032158 305.56044141314135 943.6949792602182 304.7900337611692Q941.8755058693903 304.019626109197 940.2199490002586 304.019626109197L940.2199490002586 304.019626109197Q935.0237952624885 304.019626109197 930.8439239592352 309.87144593375183Q926.6476610038122 315.7068741061369 924.2872630913868 324.0338334083045Q921.9268651789613 332.3444010583025 921.9268651789613 339.0813701000167L921.9268651789613 339.0813701000167Q921.9268651789613 342.03186749054856 922.631706222255 343.5071161858145Q923.3365472655487 344.9823648810804 924.9921041346804 344.9823648810804L924.9921041346804 344.9823648810804Z " fill="#372772" transform="matrix(0.9145613756051024,0,0,0.9145613756051024,0,2.249505055231623)"/></g></svg>